<svg width="240" height="240" viewBox="0 0 240 240" fill="none" xmlns="http://www.w3.org/2000/svg">
<path d="M206.695 70.323C206.661 70.265 206.628 70.207 206.595 70.1491C206.554 70.0745 206.504 69.9917 206.463 69.9172C204.068 65.834 201.209 61.6101 198.209 57.8334C197.745 57.2536 196.932 57.0962 196.286 57.4689L184.477 64.2521C183.673 64.7159 183.474 65.7926 184.062 66.5131C187.129 70.1822 189.955 74.2571 192.308 78.2905C206.786 103.319 207.83 135.19 192.267 161.991C177.027 188.237 149.671 203.079 121.379 203.56C120.542 203.576 119.854 202.897 119.854 202.061L119.912 175.052L120.02 122.7C120.02 121.549 118.777 120.828 117.774 121.4L72.3521 147.48L63.3771 152.632C62.6479 153.046 62.4075 153.982 62.8385 154.703C65.0843 158.446 67.6367 162.032 70.4792 165.42C70.9101 165.942 71.6394 166.107 72.2526 165.826C72.2941 165.809 72.3355 165.784 72.3769 165.759L101.846 148.839C102.849 148.267 104.092 148.988 104.092 150.139L104.017 184.171L103.976 202.019L103.943 217.424C103.943 218.169 104.49 218.799 105.227 218.907C110.083 219.635 114.956 219.992 119.812 220C154.328 220.05 187.924 202.218 206.487 170.232C225.059 138.246 223.874 100.238 206.695 70.323Z" fill="#E96EFF"/>
<path d="M167.745 74.1743C167.704 74.1909 167.662 74.2157 167.621 74.2406L138.152 91.1612C137.149 91.7327 135.906 91.0121 135.906 89.8609L135.981 55.8291L136.022 37.9809L136.055 22.5759C136.055 21.8305 135.508 21.201 134.771 21.0934C129.914 20.3645 125.042 20.0084 120.185 20.0001C85.6694 19.9504 52.0734 37.7821 33.5103 69.7681C14.9057 101.812 16.1321 139.902 33.4025 169.843L33.3859 169.851C35.7975 174.058 38.5322 178.108 41.5653 181.96C42.0294 182.548 42.8498 182.705 43.4962 182.332L55.3054 175.549C56.1092 175.085 56.2999 174.009 55.7115 173.296C52.7364 169.702 50.0928 165.884 47.789 161.892L47.7972 161.883C33.2202 136.821 32.1346 104.868 47.731 78.0007C62.971 51.7542 90.3268 36.9125 118.619 36.4321C119.456 36.4155 120.144 37.0947 120.144 37.9312L120.086 64.9396L119.978 117.292C119.978 118.443 121.221 119.163 122.224 118.592L167.646 92.5112L176.621 87.3597C177.35 86.9455 177.59 86.0097 177.159 85.2891C174.914 81.5455 172.361 77.9593 169.519 74.5719C169.088 74.0584 168.358 73.8927 167.745 74.1743Z" fill="#00D7FF"/>
<path d="M74.0675 207.618C78.6078 207.618 82.2884 203.939 82.2884 199.402C82.2884 194.864 78.6078 191.186 74.0675 191.186C69.5273 191.186 65.8467 194.864 65.8467 199.402C65.8467 203.939 69.5273 207.618 74.0675 207.618Z" fill="#E96EFF"/>
<path d="M166.112 49.0708C170.653 49.0708 174.333 45.3924 174.333 40.8548C174.333 36.3173 170.653 32.6388 166.112 32.6388C161.572 32.6388 157.892 36.3173 157.892 40.8548C157.892 45.3924 161.572 49.0708 166.112 49.0708Z" fill="#00D7FF"/>
</svg>
