<svg width="950" height="204" viewBox="0 0 950 204" fill="none" xmlns="http://www.w3.org/2000/svg">
<path d="M321.801 151.234L273.102 54.1004C272.956 53.8048 272.648 53.6189 272.314 53.6189C271.98 53.6189 271.672 53.8048 271.527 54.1004L222.528 151.234C222.237 151.809 222.665 152.493 223.316 152.493H237.865C238.208 152.493 238.516 152.299 238.661 152.003L269.909 87.8076C270.534 86.5235 272.4 86.5319 273.007 87.8244L303.177 151.995C303.322 152.299 303.63 152.502 303.973 152.502H321.013C321.664 152.493 322.092 151.817 321.801 151.234Z" fill="white"/>
<path d="M332.987 57.6739H347.75C348.238 57.6739 348.632 58.0625 348.632 58.544V138.157C348.632 138.639 349.026 139.027 349.514 139.027H404.332C404.82 139.027 405.213 139.416 405.213 139.897V151.631C405.213 152.113 404.82 152.502 404.332 152.502H332.995C332.507 152.502 332.114 152.113 332.114 151.631V58.544C332.105 58.0625 332.499 57.6739 332.987 57.6739Z" fill="white"/>
<path d="M522.844 138.892H504.332C503.536 138.892 503.151 137.929 503.733 137.397C508.038 133.435 511.487 128.966 514.055 123.981C517.067 118.144 518.574 111.867 518.574 105.151C518.574 98.6124 517.067 92.4201 514.055 86.5826C511.042 80.7451 506.857 75.5581 501.507 71.0216C496.158 66.485 489.996 62.9538 483.038 60.4279C476.071 57.902 468.591 56.6348 460.597 56.6348C452.595 56.6348 445.114 57.902 438.156 60.4279C431.189 62.9538 425.087 66.485 419.84 71.0216C414.594 75.5581 410.486 80.7451 407.524 86.5826C404.563 92.4285 403.083 98.6124 403.083 105.151C403.083 112.036 404.563 118.406 407.524 124.243C410.486 130.089 414.585 135.209 419.84 139.61C425.087 144.011 431.189 147.433 438.156 149.874C445.114 152.316 452.595 153.532 460.597 153.532C464.791 153.532 468.83 153.177 472.725 152.502C472.767 152.493 472.819 152.493 472.87 152.493H522.853C523.341 152.493 523.734 152.104 523.734 151.623V139.754C523.726 139.281 523.332 138.892 522.844 138.892ZM445.089 137.321C440.15 135.487 435.811 132.987 432.071 129.802C428.331 126.617 425.421 122.917 423.341 118.685C421.261 114.461 420.226 109.941 420.226 105.151C420.226 100.446 421.21 95.9936 423.187 91.8119C425.164 87.6301 427.988 83.9215 431.686 80.6944C435.375 77.4673 439.688 74.9414 444.626 73.1082C449.556 71.275 454.888 70.3626 460.606 70.3626C466.323 70.3626 471.672 71.275 476.662 73.1082C481.651 74.9414 485.956 77.4504 489.602 80.6268C493.24 83.8117 496.124 87.4949 498.255 91.6767C500.386 95.8584 501.448 100.353 501.448 105.151C501.448 110.034 500.412 114.587 498.332 118.82C496.252 123.052 493.368 126.735 489.679 129.87C485.991 133.012 481.703 135.496 476.824 137.321C471.937 139.154 466.691 140.066 461.085 140.066C455.35 140.066 450.027 139.154 445.089 137.321Z" fill="white"/>
<path d="M554.066 118.617C554.066 122.63 555.256 126.245 557.652 129.473C560.04 132.7 563.207 135.268 567.161 137.185C571.107 139.103 575.574 140.066 580.564 140.066C585.759 140.066 590.355 139.112 594.361 137.185C598.358 135.268 601.533 132.7 603.869 129.473C606.206 126.245 607.378 122.63 607.378 118.617V58.544C607.378 58.0625 607.772 57.6739 608.26 57.6739H622.87C623.358 57.6739 623.751 58.0625 623.751 58.544V118.879C623.751 125.857 621.826 131.939 617.983 137.126C614.14 142.313 608.919 146.343 602.32 149.224C595.722 152.104 588.472 153.541 580.581 153.541C572.476 153.541 565.176 152.104 558.679 149.224C552.183 146.343 547.014 142.313 543.171 137.126C539.328 131.939 537.403 125.857 537.403 118.879V58.544C537.403 58.0625 537.796 57.6739 538.284 57.6739H553.202C553.69 57.6739 554.083 58.0625 554.083 58.544V118.617H554.066Z" fill="white"/>
<path d="M647.108 57.6739H661.872C662.36 57.6739 662.753 58.0625 662.753 58.544V151.623C662.753 152.104 662.36 152.493 661.872 152.493H647.108C646.62 152.493 646.227 152.104 646.227 151.623V58.544C646.235 58.0625 646.629 57.6739 647.108 57.6739Z" fill="white"/>
<path d="M799.863 54.4046L743.599 120.256C743.248 120.67 742.597 120.67 742.246 120.247L687.017 54.4046H686.863V151.623C686.863 152.104 687.257 152.493 687.745 152.493H702.038C702.525 152.493 702.919 152.104 702.919 151.623V98.9334C702.919 98.1224 703.938 97.7591 704.468 98.3758L742.503 142.685H742.811L781.933 96.0865C782.455 95.4613 783.491 95.8246 783.491 96.644V151.631C783.491 152.113 783.884 152.502 784.372 152.502H799.136C799.624 152.502 800.017 152.113 800.017 151.631V54.4046H799.863Z" fill="white"/>
<path d="M825.009 57.6739H839.773C840.26 57.6739 840.654 58.0625 840.654 58.544V151.623C840.654 152.104 840.26 152.493 839.773 152.493H825.009C824.521 152.493 824.127 152.104 824.127 151.623V58.544C824.136 58.0625 824.53 57.6739 825.009 57.6739Z" fill="white"/>
<path d="M949.906 151.234L901.207 54.1004C901.061 53.8048 900.753 53.6189 900.419 53.6189C900.086 53.6189 899.777 53.8048 899.632 54.1004L850.633 151.234C850.342 151.809 850.77 152.493 851.421 152.493H865.971C866.313 152.493 866.621 152.299 866.767 152.003L898.785 86.2362C899.11 85.5773 900.06 85.5773 900.377 86.2447L931.291 151.986C931.436 152.29 931.744 152.493 932.087 152.493H949.127C949.777 152.493 950.197 151.817 949.906 151.234Z" fill="white"/>
<path d="M186.695 50.323C186.661 50.265 186.628 50.2071 186.595 50.1491C186.554 50.0745 186.504 49.9917 186.463 49.9172C184.068 45.834 181.209 41.6101 178.209 37.8334C177.745 37.2536 176.932 37.0963 176.286 37.469L164.477 44.2521C163.673 44.7159 163.474 45.7926 164.062 46.5132C167.129 50.1822 169.955 54.2571 172.308 58.2905C186.786 83.3195 187.83 115.19 172.267 141.991C157.027 168.237 129.671 183.079 101.379 183.56C100.542 183.576 99.8539 182.897 99.8539 182.061L99.9119 155.052L100.02 102.7C100.02 101.549 98.7765 100.828 97.7738 101.4L52.3521 127.48L43.3771 132.632C42.6479 133.046 42.4075 133.982 42.8385 134.703C45.0843 138.446 47.6367 142.032 50.4792 145.42C50.9101 145.942 51.6394 146.107 52.2526 145.826C52.2941 145.809 52.3355 145.784 52.3769 145.759L81.8459 128.839C82.8487 128.267 84.0918 128.988 84.0918 130.139L84.0172 164.171L83.9757 182.019L83.9426 197.424C83.9426 198.169 84.4895 198.799 85.2271 198.907C90.0834 199.635 94.9562 199.992 99.8124 200C134.328 200.05 167.924 182.218 186.487 150.232C205.059 118.246 203.874 80.2385 186.695 50.323Z" fill="#E96EFF"/>
<path d="M147.745 54.1743C147.704 54.1909 147.662 54.2157 147.621 54.2406L118.152 71.1612C117.149 71.7327 115.906 71.0121 115.906 69.8609L115.981 35.8291L116.022 17.9809L116.055 2.5759C116.055 1.83049 115.508 1.20104 114.771 1.09337C109.914 0.364529 105.042 0.00838584 100.185 0.000103586C65.6694 -0.0495899 32.0734 17.7821 13.5102 49.7681C-5.09435 81.8122 -3.86786 119.902 13.4025 149.843L13.3859 149.851C15.7975 154.058 18.5322 158.108 21.5653 161.96C22.0294 162.548 22.8498 162.705 23.4962 162.332L35.3054 155.549C36.1092 155.085 36.2998 154.009 35.7115 153.296C32.7364 149.702 30.0928 145.884 27.789 141.892L27.7972 141.883C13.2202 116.821 12.1346 84.8683 27.731 58.0007C42.971 31.7542 70.3268 16.9125 98.619 16.4321C99.456 16.4155 100.144 17.0947 100.144 17.9312L100.086 44.9396L99.9781 97.2917C99.9781 98.4429 101.221 99.1635 102.224 98.592L147.646 72.5112L156.621 67.3597C157.35 66.9455 157.59 66.0097 157.159 65.2891C154.913 61.5455 152.361 57.9593 149.519 54.5719C149.088 54.0584 148.358 53.8927 147.745 54.1743Z" fill="#00D7FF"/>
<path d="M54.0675 187.618C58.6078 187.618 62.2884 183.94 62.2884 179.402C62.2884 174.864 58.6078 171.186 54.0675 171.186C49.5273 171.186 45.8467 174.864 45.8467 179.402C45.8467 183.94 49.5273 187.618 54.0675 187.618Z" fill="#E96EFF"/>
<path d="M146.112 29.0708C150.653 29.0708 154.333 25.3924 154.333 20.8548C154.333 16.3173 150.653 12.6388 146.112 12.6388C141.572 12.6388 137.892 16.3173 137.892 20.8548C137.892 25.3924 141.572 29.0708 146.112 29.0708Z" fill="#00D7FF"/>
</svg>
